<svg aria-hidden="true" style="position: absolute; width: 0; height: 0; overflow: hidden;" version="1.1" xmlns="http://www.w3.org/2000/svg" xmlns:xlink="http://www.w3.org/1999/xlink">
<defs>

<symbol id="icon-star" viewBox="0 0 32 32">
<path stroke-linejoin="miter" stroke-linecap="butt" stroke-miterlimit="4" stroke-width="2.4" d="M12.4 9.394l3.6-6.822 3.6 6.822c0.318 0.603 0.899 1.025 1.571 1.141l7.601 1.315-5.376 5.532c-0.475 0.489-0.697 1.171-0.6 1.846l1.098 7.635-6.922-3.404c-0.612-0.301-1.329-0.301-1.941 0l-6.922 3.404 1.098-7.635c0.097-0.675-0.125-1.357-0.6-1.846l-5.376-5.532 7.601-1.315c0.672-0.116 1.252-0.538 1.571-1.141z"></path>
</symbol>

<symbol id="icon-map-pin" viewBox="0 0 32 32">
<path d="M14.565 0.114c-2.331 0.242-4.664 1.178-6.652 2.667-0.672 0.504-1.961 1.793-2.463 2.465-1.541 2.057-2.449 4.37-2.679 6.832-0.078 0.832-0.038 2.401 0.080 3.153 0.758 4.812 4.197 9.877 9.922 14.619 0.954 0.79 2.371 1.841 2.673 1.981 0.166 0.078 0.36 0.124 0.565 0.124 0.182 0 0.356-0.036 0.514-0.101l-0.009 0.003c0.496-0.226 2.475-1.749 3.811-2.935 4.608-4.091 7.509-8.269 8.535-12.294 0.338-1.324 0.402-1.849 0.4-3.343 0-1.431-0.056-1.917-0.352-3.141-0.481-1.874-1.291-3.513-2.373-4.933l0.024 0.033c-0.502-0.672-1.791-1.959-2.463-2.463-1.872-1.436-4.178-2.398-6.691-2.668l-0.059-0.005c-0.403-0.029-0.874-0.046-1.349-0.046-0.505 0-1.005 0.019-1.5 0.056l0.066-0.004zM16.886 2.669c2.177 0.192 4.134 1.001 5.732 2.249l-0.024-0.018c0.414 0.314 1.537 1.437 1.851 1.849 0.64 0.844 1.084 1.615 1.451 2.513 1.254 3.065 1.052 6.204-0.61 9.525-1.084 2.165-2.641 4.242-4.824 6.424-1.233 1.242-2.543 2.403-3.924 3.477l-0.092 0.069-0.44 0.338-0.44-0.338c-1.473-1.141-2.783-2.301-4.013-3.541l-0.002-0.002c-3.551-3.561-5.622-7.073-6.138-10.41-0.059-0.457-0.092-0.986-0.092-1.523 0-0.525 0.032-1.043 0.094-1.551l-0.006 0.061c0.305-1.928 1.070-3.637 2.178-5.067l-0.019 0.025c0.314-0.412 1.437-1.535 1.851-1.849 1.773-1.344 3.559-2.027 5.894-2.251 0.412-0.040 1.018-0.032 1.575 0.020zM15.259 8.089c-1.789 0.326-3.095 1.242-3.913 2.741-0.456 0.836-0.592 1.415-0.592 2.509 0 0.676 0.022 0.96 0.094 1.226 0.558 2.037 1.897 3.377 3.931 3.929 0.508 0.138 1.903 0.136 2.453-0.004 1.944-0.483 3.445-1.984 3.92-3.891l0.008-0.037c0.144-0.564 0.144-1.885 0-2.453-0.5-1.961-1.915-3.385-3.899-3.921-0.314-0.084-1.707-0.154-2.001-0.1zM16.548 10.694c0.196 0.042 0.496 0.144 0.668 0.226 0.41 0.2 1.008 0.798 1.206 1.208 0.16 0.33 0.302 0.9 0.302 1.21s-0.142 0.88-0.302 1.208c-0.294 0.505-0.702 0.914-1.191 1.2l-0.016 0.008c-0.33 0.16-0.9 0.302-1.21 0.302s-0.88-0.142-1.21-0.302c-0.504-0.294-0.913-0.703-1.198-1.193l-0.008-0.016c-0.165-0.354-0.273-0.765-0.302-1.198l-0.001-0.010c0-0.31 0.142-0.88 0.302-1.21 0.198-0.412 0.796-1.008 1.208-1.208 0.582-0.282 1.144-0.354 1.751-0.226z"></path>
</symbol>

<symbol id="icon-ac" viewBox="0 0 32 32">
<path d="M14.408 3.282c-2.717 0.477-4.776 2.51-5.317 5.25-0.050 0.248-0.078 0.576-0.066 0.73 0.056 0.675 0.781 1.066 1.414 0.76 0.336-0.163 0.475-0.411 0.634-1.122 0.229-1.034 0.584-1.718 1.227-2.371 0.859-0.874 2.003-1.333 3.272-1.318 0.013-0 0.028-0 0.043-0 0.696 0 1.352 0.173 1.926 0.478l-0.022-0.011c1.715 0.835 2.726 2.768 2.406 4.602-0.306 1.754-1.445 3.018-3.218 3.574l-0.469 0.147-15.581 0.053-0.216 0.144c-0.263 0.179-0.433 0.477-0.433 0.815 0 0.381 0.217 0.711 0.533 0.874l0.005 0.003 0.237 0.115 15.562-0.030 0.626-0.17c2.683-0.726 4.573-2.922 4.845-5.63 0.017-0.172 0.027-0.372 0.027-0.574 0-1.001-0.237-1.946-0.657-2.783l0.016 0.036c-0.884-1.789-2.516-3.093-4.476-3.515l-0.043-0.008c-0.552-0.12-1.722-0.144-2.277-0.046zM26.373 12.091c-2.078 0.282-3.77 1.787-4.243 3.776-0.142 0.602-0.16 1.323-0.037 1.554 0.178 0.324 0.518 0.54 0.907 0.54 0.214 0 0.412-0.065 0.576-0.176l-0.004 0.002c0.274-0.19 0.408-0.488 0.45-0.998 0.061-0.722 0.293-1.25 0.781-1.77 0.552-0.592 1.179-0.899 1.97-0.968 1.394-0.12 2.768 0.848 3.117 2.197 0.394 1.526-0.478 3.046-2.050 3.573-0.282 0.094-0.85 0.101-13.733 0.126-12.611 0.024-13.451 0.032-13.61 0.118-0.643 0.352-0.656 1.269-0.024 1.698l0.194 0.13 10.186 0.027c7.27 0.019 10.234 0.045 10.347 0.086 0.685 0.253 1.237 0.714 1.51 1.258 0.75 1.496-0.178 3.264-1.853 3.523-1.314 0.203-2.542-0.661-2.846-2.003-0.098-0.432-0.288-0.704-0.592-0.842-0.653-0.298-1.419 0.166-1.419 0.859 0 0.546 0.328 1.442 0.758 2.070 0.576 0.842 1.568 1.522 2.629 1.802 0.568 0.15 1.723 0.138 2.293-0.026 2.749-0.784 4.101-3.738 2.851-6.23l-0.245-0.49 1.736-0.021c1.669-0.021 1.758-0.027 2.254-0.16 1.709-0.456 3.038-1.749 3.536-3.403l0.009-0.035c0.13-0.426 0.144-0.547 0.144-1.322 0-0.778-0.014-0.896-0.147-1.334-0.549-1.823-2.063-3.189-3.933-3.516l-0.030-0.004c-0.273-0.044-0.587-0.069-0.908-0.069-0.203 0-0.403 0.010-0.601 0.030l0.025-0.002z"></path>
</symbol>

<symbol id="icon-petrol" viewBox="0 0 32 32">
<path d="M6 5c0-0.265 0.105-0.52 0.293-0.707s0.442-0.293 0.707-0.293h10c0.265 0 0.52 0.105 0.707 0.293s0.293 0.442 0.293 0.707v10c0 0.265-0.105 0.52-0.293 0.707s-0.442 0.293-0.707 0.293h-10c-0.265 0-0.52-0.105-0.707-0.293s-0.293-0.442-0.293-0.707v-10z"></path>
<path d="M2 4c0-1.061 0.421-2.078 1.172-2.828s1.768-1.172 2.828-1.172h12c1.061 0 2.078 0.421 2.828 1.172s1.172 1.768 1.172 2.828v16c1.061 0 2.078 0.421 2.828 1.172s1.172 1.768 1.172 2.828v1c0 0.265 0.105 0.52 0.293 0.707s0.442 0.293 0.707 0.293 0.52-0.105 0.707-0.293c0.188-0.188 0.293-0.442 0.293-0.707v-9h-1c-0.265 0-0.52-0.105-0.707-0.293s-0.293-0.442-0.293-0.707v-6.25c0-0.265 0.105-0.52 0.293-0.707s0.442-0.293 0.707-0.293h2.99c-0.022-0.952-0.106-1.788-0.402-2.444-0.158-0.381-0.435-0.702-0.788-0.916-0.368-0.22-0.928-0.39-1.8-0.39-0.265 0-0.52-0.105-0.707-0.293s-0.293-0.442-0.293-0.707 0.105-0.52 0.293-0.707c0.188-0.188 0.442-0.293 0.707-0.293 1.128-0.003 2.069 0.221 2.824 0.672 0.766 0.456 1.268 1.102 1.588 1.814 0.59 1.31 0.588 2.93 0.588 4.162v6.35c0 0.132-0.025 0.262-0.076 0.383s-0.124 0.232-0.217 0.325c-0.093 0.093-0.203 0.167-0.325 0.217s-0.252 0.076-0.383 0.076h-1v9c0 0.796-0.316 1.559-0.879 2.121s-1.326 0.879-2.121 0.879-1.559-0.316-2.121-0.879c-0.563-0.563-0.879-1.326-0.879-2.121v-1c0-0.53-0.211-1.039-0.586-1.414s-0.884-0.586-1.414-0.586v8h1c0.265 0 0.52 0.105 0.707 0.293s0.293 0.442 0.293 0.707-0.105 0.52-0.293 0.707c-0.188 0.188-0.442 0.293-0.707 0.293h-22c-0.265 0-0.52-0.105-0.707-0.293s-0.293-0.442-0.293-0.707 0.105-0.52 0.293-0.707c0.188-0.188 0.442-0.293 0.707-0.293h1v-26zM20 4c0-0.53-0.211-1.039-0.586-1.414s-0.884-0.586-1.414-0.586h-12c-0.53 0-1.039 0.211-1.414 0.586s-0.586 0.884-0.586 1.414v26h16v-26z"></path>
</symbol>

<symbol id="icon-people" viewBox="0 0 32 32">
<path d="M20.8 5.259c-1.059 0.192-1.898 0.565-2.68 1.187-2.248 1.792-3.002 4.936-1.829 7.643 0.222 0.512 0.698 1.248 1.045 1.614l0.264 0.28-0.547 0.322c-1.58 0.93-2.856 2.222-3.742 3.766l-0.026 0.050c-0.235 0.414-0.794 1.701-0.898 2.066-0.11 0.392-0.106 1.208 0.010 1.65 0.197 0.739 0.61 1.445 1.125 1.915 0.334 0.307 1.090 0.698 1.571 0.816 0.238 0.058 1.467 0.072 6.427 0.072h6.133l0.4-0.125c1.139-0.355 1.963-1.066 2.458-2.115 0.264-0.562 0.336-0.957 0.304-1.666 0-0.003 0-0.007 0-0.010 0-0.396-0.083-0.773-0.233-1.115l0.007 0.018c-0.869-2.317-2.331-4.077-4.395-5.293-0.384-0.218-0.558-0.323-0.732-0.429l0.198 0.112c-0.011-0.008 0.077-0.122 0.195-0.251 0.768-0.834 1.285-1.882 1.514-3.074 0.098-0.515 0.083-2.013-0.027-2.514-0.517-2.362-2.112-4.141-4.274-4.771-0.408-0.118-0.605-0.142-1.307-0.157-0.118-0.005-0.256-0.008-0.394-0.008-0.199 0-0.397 0.006-0.593 0.017l0.027-0.001zM22.386 8.16c1.781 0.621 2.731 2.816 2.051 4.738-0.467 1.32-1.531 2.194-2.784 2.286-0.52 0.038-0.914-0.046-1.446-0.314-0.567-0.315-1.030-0.752-1.367-1.278l-0.009-0.015c-1.259-2.118-0.274-4.867 1.97-5.496 0.402-0.112 1.146-0.075 1.586 0.078zM8.027 9.045c-1.821 0.4-3.333 1.907-3.85 3.837-0.126 0.472-0.142 0.629-0.142 1.386 0 0.702 0.019 0.925 0.114 1.264 0.226 0.824 0.589 1.582 1.005 2.102l0.176 0.219-0.552 0.355c-1.317 0.854-2.359 2.030-3.028 3.42l-0.022 0.050c-0.478 1.008-0.514 1.957-0.112 2.946 0.301 0.739 1.010 1.512 1.702 1.854 0.667 0.328 0.973 0.357 3.709 0.338 2.618-0.018 2.611-0.016 2.965-0.352 0.282-0.267 0.379-0.526 0.379-0.997 0-0.49-0.11-0.763-0.41-1.016-0.349-0.293-0.326-0.291-2.922-0.291-2.658 0-2.618 0.005-2.922-0.341-0.214-0.245-0.218-0.387-0.016-0.875 0.509-1.265 1.458-2.264 2.654-2.825l0.032-0.014c0.632-0.301 1.165-0.422 2.091-0.482 1.24-0.077 1.92-0.264 2.752-0.755 0.456-0.269 1.272-1.048 1.579-1.509 1.454-2.174 1.142-5.027-0.758-6.933-0.576-0.591-1.293-1.042-2.097-1.299l-0.036-0.010c-0.496-0.158-1.731-0.198-2.293-0.074zM9.541 11.79c0.661 0.152 1.333 0.698 1.645 1.334 0.946 1.926-0.685 4.109-2.682 3.594-1.49-0.386-2.261-2.179-1.563-3.638 0.458-0.963 1.589-1.523 2.6-1.29zM22.722 17.842c1.346 0.219 2.664 0.923 3.733 1.995 0.632 0.637 1.046 1.221 1.437 2.034 0.301 0.626 0.336 0.898 0.181 1.357-0.12 0.35-0.554 0.795-0.856 0.875-0.158 0.043-1.845 0.056-5.84 0.045-5.549-0.014-5.618-0.014-5.802-0.123-0.358-0.21-0.693-0.896-0.619-1.27 0.090-0.45 0.632-1.509 1.088-2.126 0.789-1.042 1.823-1.858 3.019-2.37l0.048-0.018c0.73-0.316 1.58-0.499 2.473-0.499 0.402 0 0.796 0.037 1.178 0.109l-0.039-0.006z"></path>
</symbol>

<symbol id="icon-kitchen" viewBox="0 0 32 32">
<path d="M1 12c-0.15 0-0.297 0.034-0.432 0.098s-0.254 0.159-0.347 0.276c-0.094 0.117-0.16 0.253-0.194 0.399s-0.035 0.297-0.003 0.443l3.304 14.868c0.247 1.111 0.865 2.104 1.752 2.816s1.991 1.1 3.128 1.1h11.584c1.138-0 2.241-0.388 3.128-1.1s1.505-1.705 1.752-2.816l0.262-1.18c1.53 0.286 3.111-0.033 4.41-0.891s2.213-2.187 2.551-3.706 0.071-3.11-0.742-4.437c-0.814-1.327-2.111-2.285-3.618-2.674l0.442-1.98c0.032-0.146 0.032-0.298-0.003-0.443s-0.1-0.282-0.194-0.399c-0.094-0.117-0.212-0.211-0.347-0.276s-0.283-0.098-0.432-0.098h-26zM26 25c-0.212 0-0.423-0.017-0.632-0.050l1.734-7.796c0.925 0.268 1.722 0.86 2.246 1.669s0.738 1.778 0.604 2.732c-0.134 0.954-0.607 1.827-1.333 2.46s-1.656 0.983-2.619 0.985zM5.28 27.65l-3.034-13.65h23.508l-3.034 13.65c-0.148 0.666-0.519 1.262-1.051 1.69s-1.195 0.66-1.877 0.66h-11.584c-0.683-0-1.345-0.233-1.877-0.66s-0.903-1.023-1.051-1.69z"></path>
<path d="M8.8 1.6l-0.006 0.008-0.028 0.038c-0.146 0.2-0.282 0.407-0.408 0.62-0.107 0.171-0.202 0.349-0.282 0.534-0.052 0.12-0.068 0.184-0.074 0.206v0.008c0.023 0.177 0.085 0.346 0.182 0.496 0.15 0.266 0.356 0.544 0.616 0.89l0.020 0.024c0.236 0.316 0.52 0.694 0.74 1.086 0.224 0.4 0.44 0.91 0.44 1.49 0 0.376-0.13 0.736-0.238 0.988-0.116 0.268-0.251 0.528-0.404 0.776-0.157 0.262-0.326 0.517-0.506 0.764l-0.036 0.050-0.010 0.016-0.004 0.004c-0.159 0.212-0.396 0.353-0.658 0.391s-0.529-0.030-0.742-0.189c-0.212-0.159-0.353-0.396-0.391-0.658s0.030-0.529 0.189-0.742l0.006-0.008 0.028-0.038c0.146-0.2 0.282-0.407 0.408-0.62 0.107-0.171 0.202-0.349 0.282-0.534 0.052-0.12 0.068-0.184 0.074-0.206-0.021-0.179-0.083-0.352-0.18-0.504-0.186-0.31-0.392-0.608-0.618-0.89l-0.020-0.024c-0.27-0.345-0.517-0.708-0.74-1.086-0.272-0.451-0.424-0.964-0.44-1.49 0-0.376 0.13-0.736 0.238-0.988 0.118-0.276 0.268-0.548 0.404-0.776 0.159-0.261 0.328-0.516 0.506-0.764l0.050-0.070c0.159-0.212 0.396-0.353 0.658-0.391s0.529 0.030 0.742 0.189c0.212 0.159 0.353 0.396 0.391 0.658s-0.030 0.529-0.189 0.742zM14.8 1.6l-0.006 0.008-0.028 0.038c-0.146 0.2-0.282 0.407-0.408 0.62-0.107 0.171-0.202 0.349-0.282 0.534-0.052 0.12-0.068 0.184-0.074 0.206v0.008c0.023 0.177 0.085 0.346 0.182 0.496 0.15 0.266 0.356 0.544 0.616 0.89l0.020 0.024c0.236 0.316 0.52 0.694 0.74 1.086 0.224 0.4 0.44 0.91 0.44 1.49 0 0.376-0.13 0.736-0.238 0.988-0.116 0.268-0.251 0.528-0.404 0.776-0.157 0.262-0.326 0.517-0.506 0.764l-0.036 0.050-0.010 0.016-0.004 0.004c-0.159 0.212-0.396 0.353-0.658 0.391s-0.529-0.030-0.742-0.189c-0.212-0.159-0.353-0.396-0.391-0.658s0.030-0.529 0.189-0.742l0.006-0.008 0.028-0.038c0.146-0.2 0.282-0.407 0.408-0.62 0.107-0.171 0.202-0.349 0.282-0.534 0.052-0.12 0.068-0.184 0.074-0.206-0.021-0.179-0.083-0.352-0.18-0.504-0.186-0.31-0.392-0.608-0.618-0.89l-0.020-0.024c-0.27-0.345-0.517-0.708-0.74-1.086-0.272-0.451-0.424-0.964-0.44-1.49 0-0.376 0.13-0.736 0.238-0.988 0.118-0.276 0.268-0.548 0.404-0.776 0.159-0.261 0.328-0.516 0.506-0.764l0.050-0.070c0.159-0.212 0.396-0.353 0.658-0.391s0.529 0.030 0.742 0.189c0.212 0.159 0.353 0.396 0.391 0.658s-0.030 0.529-0.189 0.742zM20.8 1.6l-0.006 0.008-0.028 0.038c-0.146 0.2-0.282 0.407-0.408 0.62-0.107 0.171-0.202 0.349-0.282 0.534-0.052 0.12-0.068 0.184-0.074 0.206v0.008c0.023 0.177 0.085 0.346 0.182 0.496 0.15 0.266 0.356 0.544 0.616 0.89l0.020 0.024c0.236 0.316 0.52 0.694 0.74 1.086 0.224 0.4 0.44 0.91 0.44 1.49 0 0.376-0.13 0.736-0.238 0.988-0.116 0.268-0.251 0.528-0.404 0.776-0.156 0.262-0.324 0.517-0.504 0.764l-0.038 0.050-0.010 0.016-0.004 0.004c-0.159 0.212-0.396 0.353-0.658 0.391s-0.529-0.030-0.742-0.189c-0.212-0.159-0.353-0.396-0.391-0.658s0.030-0.529 0.189-0.742l0.006-0.008 0.028-0.038c0.146-0.2 0.282-0.407 0.408-0.62 0.107-0.171 0.202-0.349 0.282-0.534 0.052-0.12 0.068-0.184 0.074-0.206-0.021-0.179-0.083-0.352-0.18-0.504-0.186-0.31-0.392-0.608-0.618-0.89l-0.020-0.024c-0.27-0.345-0.517-0.708-0.74-1.086-0.272-0.451-0.424-0.964-0.44-1.49 0-0.376 0.13-0.736 0.238-0.988 0.118-0.276 0.268-0.548 0.404-0.776 0.159-0.261 0.328-0.516 0.506-0.764l0.050-0.070c0.159-0.212 0.396-0.353 0.658-0.391s0.529 0.030 0.742 0.189c0.212 0.159 0.353 0.396 0.391 0.658s-0.030 0.529-0.189 0.742z"></path>
</symbol>

<symbol id="icon-heart" viewBox="0 0 33 32">
<path d="M9.723 2.49c-1.652 0.055-3.429 0.663-4.815 1.645-0.592 0.42-1.503 1.309-1.913 1.871-1.199 1.635-1.772 3.361-1.772 5.333 0 1.969 0.565 3.673 1.769 5.333 0.444 0.613 12.656 12.831 13 13.007 0.365 0.187 0.984 0.187 1.349 0 0.344-0.176 12.556-12.393 13-13.007 1.211-1.669 1.769-3.363 1.769-5.361 0-2.4-0.912-4.571-2.64-6.277-1.566-1.565-3.73-2.534-6.12-2.534-0.026 0-0.052 0-0.078 0l0.004-0c-1.317 0.001-2.307 0.199-3.5 0.703-1.030 0.435-1.911 1.032-2.653 1.769l0.001-0.001-0.459 0.443-0.459-0.444c-0.742-0.734-1.622-1.33-2.598-1.744l-0.054-0.020c-1.027-0.457-2.224-0.723-3.484-0.723-0.123 0-0.245 0.003-0.367 0.008l0.017-0.001zM10.711 5.586c0.791 0.067 1.823 0.436 2.535 0.905 0.223 0.147 0.853 0.709 1.449 1.293 1.209 1.183 1.369 1.287 1.972 1.287s0.763-0.104 1.972-1.287c0.615-0.603 1.225-1.145 1.463-1.301 1.661-1.097 3.833-1.236 5.672-0.363 1.521 0.723 2.635 2.071 3.099 3.747 0.139 0.503 0.153 0.641 0.153 1.472s-0.015 0.969-0.153 1.472c-0.218 0.767-0.553 1.437-0.991 2.026l0.012-0.017c-0.191 0.251-2.633 2.736-5.779 5.88l-5.448 5.444-5.448-5.444c-3.145-3.144-5.588-5.629-5.779-5.88-0.425-0.573-0.761-1.242-0.968-1.966l-0.011-0.044c-0.139-0.503-0.153-0.641-0.153-1.472s0.015-0.969 0.153-1.472c0.543-2 2.075-3.548 4.026-4.102l0.041-0.010c0.479-0.137 1.315-0.245 1.667-0.213l0.516 0.044z"></path>
</symbol>

<symbol id="icon-heart-red" viewBox="0 0 32 32">
<path fill="#e44848" style="fill: var(--color2, #e44848)" d="M8.083 2.588c-3.54 0.563-6.401 3.157-7.248 6.568-0.166 0.614-0.261 1.32-0.261 2.047 0 0.047 0 0.095 0.001 0.142l-0-0.007c0 1.955 0.555 3.66 1.71 5.255 0.373 0.515 12.749 12.922 13.054 13.087 0.307 0.167 1.028 0.167 1.334 0 0.304-0.164 12.619-12.511 13.027-13.061 1.171-1.574 1.733-3.288 1.733-5.282 0-1.438-0.292-2.72-0.902-3.948-0.874-1.762-2.501-3.324-4.282-4.109-1.034-0.487-2.245-0.772-3.523-0.772-0.041 0-0.083 0-0.124 0.001l0.006-0c-0.027-0-0.059-0-0.091-0-1.668 0-3.226 0.472-4.547 1.29l0.037-0.021c-0.463 0.276-0.89 0.606-1.479 1.144l-0.519 0.473-0.586-0.531c-1.395-1.267-2.872-1.979-4.712-2.274-0.624-0.1-2.009-0.101-2.628-0.003z"></path>
</symbol>

<symbol id="icon-transmission" viewBox="0 0 40 32">
<path d="M15 4.75c0-0.995 0.395-1.948 1.098-2.652s1.657-1.098 2.652-1.098h2.5c0.995 0 1.948 0.395 2.652 1.098s1.098 1.657 1.098 2.652v2.5c0 0.995-0.395 1.948-1.098 2.652s-1.657 1.098-2.652 1.098v2.5h13.75c0.332 0 0.649 0.132 0.884 0.366s0.366 0.552 0.366 0.884v2.5c0 0.332-0.132 0.649-0.366 0.884s-0.552 0.366-0.884 0.366-0.649-0.132-0.884-0.366c-0.235-0.234-0.366-0.552-0.366-0.884v-1.25h-12.5v1.25c0 0.332-0.132 0.649-0.366 0.884s-0.552 0.366-0.884 0.366c-0.332 0-0.649-0.132-0.884-0.366s-0.366-0.552-0.366-0.884v-1.25h-12.5v1.25c0 0.332-0.132 0.649-0.366 0.884s-0.552 0.366-0.884 0.366c-0.332 0-0.649-0.132-0.884-0.366s-0.366-0.552-0.366-0.884v-2.5c0-0.332 0.132-0.649 0.366-0.884s0.552-0.366 0.884-0.366h13.75v-2.5c-0.995 0-1.948-0.395-2.652-1.098s-1.098-1.657-1.098-2.652v-2.5zM21.25 8.5c0.332 0 0.649-0.132 0.884-0.366s0.366-0.552 0.366-0.884v-2.5c0-0.332-0.132-0.649-0.366-0.884s-0.552-0.366-0.884-0.366h-2.5c-0.332 0-0.649 0.132-0.884 0.366s-0.366 0.552-0.366 0.884v2.5c0 0.332 0.132 0.649 0.366 0.884s0.552 0.366 0.884 0.366h2.5zM0 24.75c0-0.995 0.395-1.948 1.098-2.652s1.657-1.098 2.652-1.098h2.5c0.995 0 1.948 0.395 2.652 1.098s1.098 1.657 1.098 2.652v2.5c0 0.995-0.395 1.948-1.098 2.652s-1.657 1.098-2.652 1.098h-2.5c-0.995 0-1.948-0.395-2.652-1.098s-1.098-1.657-1.098-2.652v-2.5zM3.75 23.5c-0.332 0-0.649 0.132-0.884 0.366s-0.366 0.552-0.366 0.884v2.5c0 0.332 0.132 0.649 0.366 0.884s0.552 0.366 0.884 0.366h2.5c0.332 0 0.649-0.132 0.884-0.366s0.366-0.552 0.366-0.884v-2.5c0-0.332-0.132-0.649-0.366-0.884s-0.552-0.366-0.884-0.366h-2.5zM15 24.75c0-0.995 0.395-1.948 1.098-2.652s1.657-1.098 2.652-1.098h2.5c0.995 0 1.948 0.395 2.652 1.098s1.098 1.657 1.098 2.652v2.5c0 0.995-0.395 1.948-1.098 2.652s-1.657 1.098-2.652 1.098h-2.5c-0.995 0-1.948-0.395-2.652-1.098s-1.098-1.657-1.098-2.652v-2.5zM18.75 23.5c-0.332 0-0.649 0.132-0.884 0.366s-0.366 0.552-0.366 0.884v2.5c0 0.332 0.132 0.649 0.366 0.884s0.552 0.366 0.884 0.366h2.5c0.332 0 0.649-0.132 0.884-0.366s0.366-0.552 0.366-0.884v-2.5c0-0.332-0.132-0.649-0.366-0.884s-0.552-0.366-0.884-0.366h-2.5zM30 24.75c0-0.995 0.395-1.948 1.098-2.652s1.657-1.098 2.652-1.098h2.5c0.995 0 1.948 0.395 2.652 1.098s1.098 1.657 1.098 2.652v2.5c0 0.995-0.395 1.948-1.098 2.652s-1.657 1.098-2.652 1.098h-2.5c-0.995 0-1.948-0.395-2.652-1.098s-1.098-1.657-1.098-2.652v-2.5zM33.75 23.5c-0.332 0-0.649 0.132-0.884 0.366s-0.366 0.552-0.366 0.884v2.5c0 0.332 0.132 0.649 0.366 0.884s0.552 0.366 0.884 0.366h2.5c0.332 0 0.649-0.132 0.884-0.366s0.366-0.552 0.366-0.884v-2.5c0-0.332-0.132-0.649-0.366-0.884s-0.552-0.366-0.884-0.366h-2.5z"></path>
</symbol>

<symbol id="icon-radio" viewBox="0 0 32 32">
<path d="M14 5c0-0.265 0.105-0.52 0.293-0.707s0.442-0.293 0.707-0.293h14c0.265 0 0.52 0.105 0.707 0.293s0.293 0.442 0.293 0.707v2c0 0.265-0.105 0.52-0.293 0.707s-0.442 0.293-0.707 0.293h-14c-0.265 0-0.52-0.105-0.707-0.293s-0.293-0.442-0.293-0.707v-2zM0 24c0-1.591 0.632-3.117 1.757-4.243s2.651-1.757 4.243-1.757 3.117 0.632 4.243 1.757c1.125 1.125 1.757 2.651 1.757 4.243s-0.632 3.117-1.757 4.243c-1.125 1.125-2.651 1.757-4.243 1.757s-3.117-0.632-4.243-1.757c-1.125-1.125-1.757-2.651-1.757-4.243zM14 21c0-0.265 0.105-0.52 0.293-0.707s0.442-0.293 0.707-0.293h14c0.265 0 0.52 0.105 0.707 0.293s0.293 0.442 0.293 0.707v2c0 0.265-0.105 0.52-0.293 0.707s-0.442 0.293-0.707 0.293h-14c-0.265 0-0.52-0.105-0.707-0.293s-0.293-0.442-0.293-0.707v-2zM14 11c0-0.265 0.105-0.52 0.293-0.707s0.442-0.293 0.707-0.293h10c0.265 0 0.52 0.105 0.707 0.293s0.293 0.442 0.293 0.707-0.105 0.52-0.293 0.707c-0.188 0.188-0.442 0.293-0.707 0.293h-10c-0.265 0-0.52-0.105-0.707-0.293s-0.293-0.442-0.293-0.707zM14 27c0-0.265 0.105-0.52 0.293-0.707s0.442-0.293 0.707-0.293h10c0.265 0 0.52 0.105 0.707 0.293s0.293 0.442 0.293 0.707-0.105 0.52-0.293 0.707c-0.188 0.188-0.442 0.293-0.707 0.293h-10c-0.265 0-0.52-0.105-0.707-0.293s-0.293-0.442-0.293-0.707zM6 2c-0.788 0-1.568 0.155-2.296 0.457s-1.389 0.744-1.947 1.301c-0.557 0.557-0.999 1.219-1.301 1.947s-0.457 1.508-0.457 2.296c0 0.788 0.155 1.568 0.457 2.296s0.744 1.389 1.301 1.947c0.557 0.557 1.219 0.999 1.947 1.301s1.508 0.457 2.296 0.457c1.591 0 3.117-0.632 4.243-1.757s1.757-2.651 1.757-4.243c0-1.591-0.632-3.117-1.757-4.243s-2.651-1.757-4.243-1.757zM6 11c-0.796 0-1.559-0.316-2.121-0.879s-0.879-1.326-0.879-2.121c0-0.796 0.316-1.559 0.879-2.121s1.326-0.879 2.121-0.879c0.796 0 1.559 0.316 2.121 0.879s0.879 1.326 0.879 2.121c0 0.796-0.316 1.559-0.879 2.121s-1.326 0.879-2.121 0.879z"></path>
</symbol>

<symbol id="icon-close-button" viewBox="0 0 32 32">
<path d="M7.471 6.601c-0.329 0.116-0.757 0.554-0.872 0.891-0.054 0.153-0.086 0.33-0.086 0.515 0 0.181 0.030 0.355 0.086 0.517l-0.003-0.011c0.079 0.239 0.415 0.592 3.694 3.878l3.607 3.614-3.607 3.614c-3.279 3.286-3.615 3.639-3.694 3.878-0.191 0.581-0.064 1.126 0.364 1.554 0.427 0.428 0.972 0.555 1.554 0.364 0.239-0.079 0.592-0.415 3.878-3.694l3.614-3.607 3.614 3.607c3.286 3.279 3.639 3.615 3.878 3.694 0.581 0.191 1.126 0.064 1.554-0.364 0.428-0.427 0.555-0.972 0.364-1.554-0.079-0.239-0.415-0.592-3.694-3.878l-3.607-3.614 3.607-3.614c3.279-3.286 3.615-3.639 3.694-3.878 0.191-0.581 0.064-1.126-0.364-1.554-0.427-0.428-0.972-0.555-1.554-0.364-0.239 0.079-0.592 0.415-3.878 3.694l-3.614 3.607-3.614-3.607c-3.286-3.279-3.639-3.615-3.878-3.694-0.153-0.050-0.329-0.079-0.512-0.079-0.19 0-0.372 0.031-0.543 0.088l0.012-0.003z"></path>
</symbol>

<symbol id="icon-calendar" viewBox="0 0 32 32">
<path d="M10.187 1.578c-0.13 0.061-0.242 0.137-0.34 0.227l0.001-0.001c-0.299 0.285-0.326 0.389-0.355 1.397l-0.026 0.933-1.814 0.030c-2 0.032-2.054 0.040-2.752 0.405-0.961 0.51-1.674 1.381-1.963 2.428l-0.006 0.028c-0.106 0.408-0.107 0.594-0.106 10.315 0.002 9.67 0.003 9.907 0.106 10.309 0.338 1.314 1.44 2.418 2.755 2.754 0.402 0.102 0.632 0.106 10.314 0.106s9.912-0.003 10.314-0.106c1.315-0.336 2.418-1.44 2.755-2.754 0.102-0.402 0.104-0.638 0.106-10.309 0.002-9.722 0-9.907-0.106-10.315-0.296-1.075-1.008-1.946-1.948-2.446l-0.021-0.010c-0.698-0.365-0.752-0.373-2.752-0.405l-1.814-0.030-0.026-0.933c-0.029-1.008-0.056-1.112-0.355-1.397-0.217-0.193-0.504-0.311-0.818-0.311s-0.602 0.118-0.82 0.312l0.001-0.001c-0.301 0.285-0.326 0.389-0.355 1.397l-0.027 0.933h-8.266l-0.027-0.933c-0.029-1.008-0.054-1.112-0.355-1.397-0.224-0.193-0.518-0.31-0.839-0.31-0.165 0-0.322 0.031-0.467 0.087l0.009-0.003zM9.493 7.467c0.029 1.008 0.056 1.112 0.355 1.397 0.55 0.523 1.504 0.368 1.877-0.304 0.069-0.126 0.094-0.36 0.115-1.093l0.027-0.934h8.266l0.027 0.934c0.029 1.008 0.054 1.112 0.355 1.397 0.217 0.193 0.504 0.311 0.818 0.311s0.602-0.118 0.82-0.312l-0.001 0.001c0.299-0.285 0.326-0.389 0.355-1.397l0.026-0.934h1.547c1.51 0.002 1.554 0.003 1.826 0.126 0.342 0.155 0.658 0.488 0.792 0.837 0.094 0.245 0.102 0.427 0.102 2.451v2.186h-21.6v-2.16c0-2.459 0.008-2.514 0.381-2.93 0.438-0.488 0.632-0.528 2.472-0.518l1.414 0.008 0.026 0.934zM26.8 20.72c0 5.957-0.003 6.197-0.102 6.45-0.155 0.37-0.433 0.664-0.782 0.834l-0.009 0.004-0.278 0.125h-9.6c-9.315 0-9.608-0.003-9.864-0.101-0.37-0.156-0.663-0.435-0.833-0.784l-0.004-0.010-0.126-0.278-0.014-6.158c-0.008-3.387-0.003-6.189 0.011-6.227 0.022-0.054 2.058-0.066 10.814-0.054l10.789 0.013v6.187z"></path>
</symbol>

<symbol id="icon-microvawe" viewBox="0 0 32 32">
<path d="M1.878 4.642c-0.762 0.11-1.506 0.776-1.757 1.571-0.098 0.314-0.098 19.261 0 19.574 0.259 0.821 0.989 1.458 1.805 1.574 0.49 0.072 27.706 0.067 28.154-0.003 0.741-0.129 1.349-0.603 1.661-1.247l0.006-0.014 0.173-0.365v-19.466l-0.173-0.365c-0.319-0.66-0.93-1.135-1.66-1.262l-0.014-0.002c-0.413-0.061-27.786-0.058-28.195 0.003zM29.733 16v9.147h-27.466l-0.014-9.094c-0.008-5.002-0.002-9.123 0.011-9.16 0.021-0.053 2.798-0.064 13.747-0.053l13.722 0.013v9.147zM6.357 9.23c-0.837 0.166-1.573 0.955-1.718 1.842-0.069 0.419-0.069 9.437 0 9.856 0.15 0.915 0.888 1.683 1.773 1.846 0.19 0.035 2.613 0.050 6.928 0.040l6.634-0.014 0.386-0.181c0.709-0.333 1.202-0.997 1.299-1.757 0.059-0.464 0.059-9.261 0-9.725-0.11-0.783-0.606-1.431-1.285-1.751l-0.014-0.006-0.386-0.181-6.693-0.008c-3.682-0.005-6.797 0.013-6.923 0.038zM24.987 10.325c-0.038 0.011-0.115 0.029-0.193 0.045l-0.036 0.006c-0.171 0.037-0.547 0.392-0.634 0.595-0.168 0.403-0.050 0.994 0.258 1.28 0.253 0.237 0.469 0.282 1.325 0.282 0.877 0 1.072-0.045 1.35-0.309 0.232-0.221 0.32-0.432 0.325-0.784 0.001-0.014 0.001-0.029 0.001-0.045 0-0.395-0.215-0.739-0.535-0.921l-0.005-0.003c-0.234-0.136-0.29-0.146-0.998-0.158-0.090-0.003-0.196-0.005-0.302-0.005-0.195 0-0.389 0.007-0.581 0.020l0.026-0.001zM19.467 16v4.587h-12.64v-9.174h12.64v4.587zM24.65 15.018c-0.426 0.214-0.57 0.462-0.57 0.982 0 0.526 0.146 0.773 0.581 0.986 0.286 0.141 0.31 0.144 1.146 0.126 0.85-0.019 0.851-0.019 1.083-0.181 0.302-0.204 0.498-0.545 0.498-0.931s-0.196-0.727-0.494-0.929l-0.004-0.003-0.232-0.162-0.862-0.018c-0.845-0.016-0.867-0.013-1.146 0.128z"></path>
</symbol>

<symbol id="icon-toilet" viewBox="0 0 32 32">
<path d="M14.42 1.6c0.96-1.010 1.58-1.6 1.58-1.6 0.219 0.725 0.466 1.417 0.742 2.076 1.624 3.892 4.146 6.7 6.394 9.2 2.62 2.916 4.864 5.414 4.864 8.724 0 3.183-1.264 6.235-3.515 8.485s-5.303 3.515-8.485 3.515c-3.183 0-6.235-1.264-8.485-3.515s-3.515-5.303-3.515-8.485c0-6.664 7.16-14.966 10.42-18.4zM15.246 3.642c-1.285 1.389-2.505 2.837-3.658 4.338-1.452 1.9-2.872 4.016-3.92 6.14-1.060 2.146-1.668 4.156-1.668 5.88 0 2.652 1.054 5.196 2.929 7.071s4.419 2.929 7.071 2.929c2.652 0 5.196-1.054 7.071-2.929s2.929-4.419 2.929-7.071c0-2.402-1.592-4.314-4.362-7.4l-0.060-0.064c-2.078-2.316-4.578-5.094-6.332-8.894z"></path>
<path d="M9.106 15.552c1.64-3.282 3.434-5.506 4.186-6.26l1.416 1.416c-0.58 0.58-2.256 2.622-3.814 5.74l-1.788-0.896z"></path>
</symbol>

<symbol id="icon-tv" viewBox="0 0 41 32">
<path d="M0 5.12c0 0 0-5.12 5.12-5.12h30.72c0 0 5.12 0 5.12 5.12v15.36c0 0 0 5.12-5.12 5.12h-10.24c0 1.707 0.213 2.987 0.64 3.84h1.92c0.339 0 0.665 0.135 0.905 0.375s0.375 0.566 0.375 0.905c0 0.339-0.135 0.665-0.375 0.905s-0.566 0.375-0.905 0.375h-15.36c-0.339 0-0.665-0.135-0.905-0.375s-0.375-0.566-0.375-0.905c0-0.339 0.135-0.665 0.375-0.905s0.566-0.375 0.905-0.375h1.92c0.427-0.853 0.64-2.133 0.64-3.84h-10.24c0 0-5.12 0-5.12-5.12v-15.36zM3.579 2.931c-0.281 0.196-0.505 0.463-0.65 0.773-0.216 0.452-0.341 0.941-0.369 1.441v15.334c0 0.832 0.2 1.285 0.371 1.541 0.179 0.266 0.437 0.483 0.773 0.65 0.432 0.207 0.899 0.331 1.377 0.366l0.064 0.003h30.694c0.832 0 1.285-0.2 1.541-0.371 0.281-0.196 0.505-0.463 0.65-0.773 0.207-0.432 0.331-0.899 0.366-1.377l0.003-0.064v-15.334c0-0.832-0.2-1.285-0.371-1.541-0.196-0.281-0.463-0.505-0.773-0.65-0.452-0.216-0.941-0.341-1.441-0.369h-30.694c-0.832 0-1.285 0.2-1.541 0.371z"></path>
</symbol>

<symbol id="icon-location" viewBox="0 0 32 32">
<path d="M31.634 0.226c0.115 0.094 0.207 0.212 0.27 0.346s0.096 0.28 0.096 0.428v28c-0 0.231-0.080 0.455-0.227 0.634s-0.351 0.301-0.577 0.346l-10 2c-0.129 0.026-0.263 0.026-0.392 0l-9.804-1.96-9.804 1.96c-0.145 0.029-0.295 0.025-0.438-0.010s-0.277-0.103-0.392-0.197c-0.114-0.094-0.207-0.212-0.27-0.345s-0.096-0.28-0.096-0.428v-28c0-0.231 0.080-0.455 0.227-0.634s0.351-0.301 0.577-0.346l10-2c0.129-0.026 0.263-0.026 0.392 0l9.804 1.96 9.804-1.96c0.145-0.029 0.295-0.026 0.438 0.010s0.277 0.103 0.392 0.196zM20 3.82l-8-1.6v25.96l8 1.6v-25.96zM22 29.78l8-1.6v-25.96l-8 1.6v25.96zM10 28.18v-25.96l-8 1.6v25.96l8-1.6z"></path>
</symbol>

<symbol id="icon-van" viewBox="0 0 32 32">
<path d="M12 2h-10v28h10v-28zM30 2h-10v10h10v-10zM30 20v10h-10v-10h10zM0 2c0-0.53 0.211-1.039 0.586-1.414s0.884-0.586 1.414-0.586h10c0.53 0 1.039 0.211 1.414 0.586s0.586 0.884 0.586 1.414v28c0 0.53-0.211 1.039-0.586 1.414s-0.884 0.586-1.414 0.586h-10c-0.53 0-1.039-0.211-1.414-0.586s-0.586-0.884-0.586-1.414v-28zM18 2c0-0.53 0.211-1.039 0.586-1.414s0.884-0.586 1.414-0.586h10c0.53 0 1.039 0.211 1.414 0.586s0.586 0.884 0.586 1.414v10c0 0.53-0.211 1.039-0.586 1.414s-0.884 0.586-1.414 0.586h-10c-0.53 0-1.039-0.211-1.414-0.586s-0.586-0.884-0.586-1.414v-10zM20 18c-0.53 0-1.039 0.211-1.414 0.586s-0.586 0.884-0.586 1.414v10c0 0.53 0.211 1.039 0.586 1.414s0.884 0.586 1.414 0.586h10c0.53 0 1.039-0.211 1.414-0.586s0.586-0.884 0.586-1.414v-10c0-0.53-0.211-1.039-0.586-1.414s-0.884-0.586-1.414-0.586h-10z"></path>
</symbol>

<symbol id="icon-fullyIntegrated" viewBox="0 0 32 32">
<path d="M0 3.429c0-0.909 0.361-1.781 1.004-2.424s1.515-1.004 2.424-1.004h6.857c0.909 0 1.781 0.361 2.424 1.004s1.004 1.515 1.004 2.424v6.857c0 0.909-0.361 1.781-1.004 2.424s-1.515 1.004-2.424 1.004h-6.857c-0.909 0-1.781-0.361-2.424-1.004s-1.004-1.515-1.004-2.424v-6.857zM3.429 2.286c-0.303 0-0.594 0.12-0.808 0.335s-0.335 0.505-0.335 0.808v6.857c0 0.303 0.12 0.594 0.335 0.808s0.505 0.335 0.808 0.335h6.857c0.303 0 0.594-0.12 0.808-0.335s0.335-0.505 0.335-0.808v-6.857c0-0.303-0.12-0.594-0.335-0.808s-0.505-0.335-0.808-0.335h-6.857zM18.286 3.429c0-0.909 0.361-1.781 1.004-2.424s1.515-1.004 2.424-1.004h6.857c0.909 0 1.781 0.361 2.424 1.004s1.004 1.515 1.004 2.424v6.857c0 0.909-0.361 1.781-1.004 2.424s-1.515 1.004-2.424 1.004h-6.857c-0.909 0-1.781-0.361-2.424-1.004s-1.004-1.515-1.004-2.424v-6.857zM21.714 2.286c-0.303 0-0.594 0.12-0.808 0.335s-0.335 0.505-0.335 0.808v6.857c0 0.303 0.12 0.594 0.335 0.808s0.505 0.335 0.808 0.335h6.857c0.303 0 0.594-0.12 0.808-0.335s0.335-0.505 0.335-0.808v-6.857c0-0.303-0.12-0.594-0.335-0.808s-0.505-0.335-0.808-0.335h-6.857zM0 21.714c0-0.909 0.361-1.781 1.004-2.424s1.515-1.004 2.424-1.004h6.857c0.909 0 1.781 0.361 2.424 1.004s1.004 1.515 1.004 2.424v6.857c0 0.909-0.361 1.781-1.004 2.424s-1.515 1.004-2.424 1.004h-6.857c-0.909 0-1.781-0.361-2.424-1.004s-1.004-1.515-1.004-2.424v-6.857zM3.429 20.571c-0.303 0-0.594 0.12-0.808 0.335s-0.335 0.505-0.335 0.808v6.857c0 0.303 0.12 0.594 0.335 0.808s0.505 0.335 0.808 0.335h6.857c0.303 0 0.594-0.12 0.808-0.335s0.335-0.505 0.335-0.808v-6.857c0-0.303-0.12-0.594-0.335-0.808s-0.505-0.335-0.808-0.335h-6.857zM18.286 21.714c0-0.909 0.361-1.781 1.004-2.424s1.515-1.004 2.424-1.004h6.857c0.909 0 1.781 0.361 2.424 1.004s1.004 1.515 1.004 2.424v6.857c0 0.909-0.361 1.781-1.004 2.424s-1.515 1.004-2.424 1.004h-6.857c-0.909 0-1.781-0.361-2.424-1.004s-1.004-1.515-1.004-2.424v-6.857zM21.714 20.571c-0.303 0-0.594 0.12-0.808 0.335s-0.335 0.505-0.335 0.808v6.857c0 0.303 0.12 0.594 0.335 0.808s0.505 0.335 0.808 0.335h6.857c0.303 0 0.594-0.12 0.808-0.335s0.335-0.505 0.335-0.808v-6.857c0-0.303-0.12-0.594-0.335-0.808s-0.505-0.335-0.808-0.335h-6.857z"></path>
</symbol>

<symbol id="icon-alcove" viewBox="0 0 32 32">
<path d="M6.857 2.286v4.571h-4.571v-4.571h4.571zM9.143 29.714v-4.571c0-0.606-0.241-1.188-0.669-1.616s-1.010-0.669-1.616-0.669h-4.571c-0.606 0-1.188 0.241-1.616 0.669s-0.669 1.010-0.669 1.616v4.571c0 0.606 0.241 1.188 0.669 1.616s1.010 0.669 1.616 0.669h4.571c0.606 0 1.188-0.241 1.616-0.669s0.669-1.010 0.669-1.616zM9.143 18.286v-4.571c0-0.606-0.241-1.188-0.669-1.616s-1.010-0.669-1.616-0.669h-4.571c-0.606 0-1.188 0.241-1.616 0.669s-0.669 1.010-0.669 1.616v4.571c0 0.606 0.241 1.188 0.669 1.616s1.010 0.669 1.616 0.669h4.571c0.606 0 1.188-0.241 1.616-0.669s0.669-1.010 0.669-1.616zM9.143 6.857v-4.571c0-0.606-0.241-1.188-0.669-1.616s-1.010-0.669-1.616-0.669h-4.571c-0.606 0-1.188 0.241-1.616 0.669s-0.669 1.010-0.669 1.616v4.571c0 0.606 0.241 1.188 0.669 1.616s1.010 0.669 1.616 0.669h4.571c0.606 0 1.188-0.241 1.616-0.669s0.669-1.010 0.669-1.616zM20.571 29.714v-4.571c0-0.606-0.241-1.188-0.669-1.616s-1.010-0.669-1.616-0.669h-4.571c-0.606 0-1.188 0.241-1.616 0.669s-0.669 1.010-0.669 1.616v4.571c0 0.606 0.241 1.188 0.669 1.616s1.010 0.669 1.616 0.669h4.571c0.606 0 1.188-0.241 1.616-0.669s0.669-1.010 0.669-1.616zM20.571 18.286v-4.571c0-0.606-0.241-1.188-0.669-1.616s-1.010-0.669-1.616-0.669h-4.571c-0.606 0-1.188 0.241-1.616 0.669s-0.669 1.010-0.669 1.616v4.571c0 0.606 0.241 1.188 0.669 1.616s1.010 0.669 1.616 0.669h4.571c0.606 0 1.188-0.241 1.616-0.669s0.669-1.010 0.669-1.616zM20.571 6.857v-4.571c0-0.606-0.241-1.188-0.669-1.616s-1.010-0.669-1.616-0.669h-4.571c-0.606 0-1.188 0.241-1.616 0.669s-0.669 1.010-0.669 1.616v4.571c0 0.606 0.241 1.188 0.669 1.616s1.010 0.669 1.616 0.669h4.571c0.606 0 1.188-0.241 1.616-0.669s0.669-1.010 0.669-1.616zM18.286 2.286v4.571h-4.571v-4.571h4.571zM29.714 2.286v4.571h-4.571v-4.571h4.571zM6.857 13.714v4.571h-4.571v-4.571h4.571zM18.286 13.714v4.571h-4.571v-4.571h4.571zM29.714 13.714h-4.571v4.571h4.571v-4.571zM6.857 25.143v4.571h-4.571v-4.571h4.571zM18.286 25.143v4.571h-4.571v-4.571h4.571zM29.714 25.143v4.571h-4.571v-4.571h4.571zM25.143 0c-0.606 0-1.188 0.241-1.616 0.669s-0.669 1.010-0.669 1.616v4.571c0 0.606 0.241 1.188 0.669 1.616s1.010 0.669 1.616 0.669h4.571c0.606 0 1.188-0.241 1.616-0.669s0.669-1.010 0.669-1.616v-4.571c0-0.606-0.241-1.188-0.669-1.616s-1.010-0.669-1.616-0.669h-4.571zM22.857 13.714c0-0.606 0.241-1.188 0.669-1.616s1.010-0.669 1.616-0.669h4.571c0.606 0 1.188 0.241 1.616 0.669s0.669 1.010 0.669 1.616v4.571c0 0.606-0.241 1.188-0.669 1.616s-1.010 0.669-1.616 0.669h-4.571c-0.606 0-1.188-0.241-1.616-0.669s-0.669-1.010-0.669-1.616v-4.571zM25.143 22.857c-0.606 0-1.188 0.241-1.616 0.669s-0.669 1.010-0.669 1.616v4.571c0 0.606 0.241 1.188 0.669 1.616s1.010 0.669 1.616 0.669h4.571c0.606 0 1.188-0.241 1.616-0.669s0.669-1.010 0.669-1.616v-4.571c0-0.606-0.241-1.188-0.669-1.616s-1.010-0.669-1.616-0.669h-4.571z"></path>
</symbol>

</defs>
</svg>
